<svg width="20" height="21" viewBox="0 0 20 21" fill="none" xmlns="http://www.w3.org/2000/svg">
<path fill-rule="evenodd" clip-rule="evenodd" d="M2.38095 1.02379C1.59197 1.02379 0.952381 1.66338 0.952381 2.45236V17.6905C0.952381 18.4794 1.59197 19.119 2.38095 19.119H6.66667V20.0714H2.38095C1.06599 20.0714 0 19.0054 0 17.6905V2.45236C0 1.1374 1.06599 0.0714111 2.38095 0.0714111H6.87812C7.47382 0.0714111 8.04788 0.294706 8.48695 0.69723L13.0374 4.86848C13.5294 5.31945 13.8095 5.95621 13.8095 6.6236V6.73808H12.8571V6.6236C12.8571 6.22316 12.689 5.84112 12.3939 5.57053L7.84345 1.39929C7.57997 1.15777 7.23554 1.02379 6.87812 1.02379H2.38095Z" fill="#E01A22"/>
<path fill-rule="evenodd" clip-rule="evenodd" d="M7.14258 3.88094V0.547607H8.09496V3.88094C8.09496 4.66992 8.73458 5.30951 9.52353 5.30951H12.8569V6.26189H9.52353C8.20858 6.26189 7.14258 5.1959 7.14258 3.88094Z" fill="#E01A22"/>
<path fill-rule="evenodd" clip-rule="evenodd" d="M14.761 11.0238V17.6905H13.8086V11.0238H14.761Z" fill="#E01A22"/>
<path fill-rule="evenodd" clip-rule="evenodd" d="M13.9489 10.687C14.1348 10.5011 14.4364 10.5011 14.6224 10.687L17.4795 13.5442L16.8061 14.2177L14.2856 11.6972L11.7652 14.2177L11.0918 13.5442L13.9489 10.687Z" fill="#E01A22"/>
<path fill-rule="evenodd" clip-rule="evenodd" d="M14.2866 9.5952C11.6566 9.5952 9.52465 11.7272 9.52465 14.3571C9.52465 16.987 11.6566 19.119 14.2866 19.119C16.9165 19.119 19.0485 16.987 19.0485 14.3571C19.0485 11.7272 16.9165 9.5952 14.2866 9.5952ZM8.57227 14.3571C8.57227 11.2012 11.1306 8.64282 14.2866 8.64282C17.4425 8.64282 20.0008 11.2012 20.0008 14.3571C20.0008 17.513 17.4425 20.0714 14.2866 20.0714C11.1306 20.0714 8.57227 17.513 8.57227 14.3571Z" fill="#E01A22"/>
</svg>
