<svg width="24" height="21" viewBox="0 0 24 21" fill="none" xmlns="http://www.w3.org/2000/svg">
<path d="M18.4259 11.4961C17.9499 11.4947 17.4801 11.6043 17.0538 11.8162C16.6276 12.0281 16.2565 12.3365 15.9702 12.7168C15.6839 13.0971 15.4902 13.5389 15.4045 14.0072C15.3187 14.4754 15.3433 14.9572 15.4762 15.4143C15.6092 15.8714 15.8469 16.2912 16.1704 16.6404C16.4939 16.9896 16.8944 17.2586 17.34 17.426C17.7856 17.5934 18.2641 17.6546 18.7375 17.6048C19.211 17.555 19.6663 17.3956 20.0673 17.1391L21.1966 18.2684C21.4261 18.4985 21.7188 18.6553 22.0376 18.7189C22.3564 18.7825 22.6869 18.7499 22.9872 18.6255C23.2874 18.501 23.544 18.2902 23.7243 18.0197C23.9046 17.7492 24.0006 17.4313 24 17.1063V7.00533C23.9991 6.10041 23.6397 5.2327 23.0005 4.5922C22.3612 3.95171 21.4942 3.59062 20.5892 3.58802H14.119C13.6428 3.58922 13.1801 3.42959 12.8059 3.135L9.76939 0.73533C9.16585 0.260055 8.42024 0.00111609 7.65203 0H3.41732C2.51125 0.000869125 1.64255 0.361186 1.00187 1.00187C0.361186 1.64255 0.000869125 2.51125 0 3.41732V16.7255C0.000867329 17.631 0.360733 18.4992 1.00071 19.1398C1.64068 19.7804 2.50854 20.1411 3.41403 20.1428H19.0825C19.2566 20.1428 19.4236 20.0736 19.5467 19.9505C19.6698 19.8274 19.739 19.6604 19.739 19.4862C19.739 19.3121 19.6698 19.1451 19.5467 19.022C19.4236 18.8989 19.2566 18.8297 19.0825 18.8297H6.119C6.60317 18.2226 6.86704 17.4692 6.86746 16.6927V10.3078C6.86833 9.74994 7.0903 9.21523 7.48473 8.8208C7.87916 8.42637 8.41388 8.2044 8.97169 8.20353H20.5892C21.1471 8.2044 21.6818 8.42637 22.0762 8.8208C22.4706 9.21523 22.6926 9.74994 22.6935 10.3078V17.1063C22.6939 17.1715 22.6748 17.2353 22.6388 17.2897C22.6027 17.344 22.5513 17.3864 22.4911 17.4114C22.4309 17.4364 22.3646 17.4429 22.3006 17.43C22.2367 17.4172 22.178 17.3856 22.1321 17.3393L21.0029 16.2101C21.3002 15.7477 21.4673 15.2137 21.4869 14.6643C21.5064 14.1149 21.3776 13.5704 21.1139 13.0881C20.8502 12.6057 20.4614 12.2033 19.9884 11.9232C19.5154 11.643 18.9757 11.4955 18.4259 11.4961ZM19.6832 15.7636L19.6602 15.7833L19.6504 15.8194C19.3167 16.1419 18.8691 16.3195 18.4051 16.3135C17.9411 16.3075 17.4982 16.1185 17.1729 15.7876C16.8476 15.4566 16.6662 15.0106 16.6682 14.5466C16.6702 14.0825 16.8554 13.6381 17.1835 13.3099C17.5117 12.9818 17.9561 12.7966 18.4202 12.7946C18.8842 12.7926 19.3303 12.974 19.6612 13.2993C19.9921 13.6246 20.1812 14.0675 20.1871 14.5315C20.1931 14.9955 20.0155 15.4431 19.6931 15.7768L19.6832 15.7636ZM20.5892 6.89044H8.97169C8.06562 6.89131 7.19692 7.25162 6.55624 7.89231C5.91556 8.53299 5.55524 9.40169 5.55437 10.3078V16.6894C5.5535 17.2559 5.32807 17.7989 4.92748 18.1995C4.52689 18.6001 3.98383 18.8256 3.41732 18.8264C2.85951 18.8256 2.32479 18.6036 1.93036 18.2092C1.53593 17.8147 1.31396 17.28 1.31309 16.7222V3.41732C1.31396 2.85951 1.53593 2.32479 1.93036 1.93036C2.32479 1.53593 2.85951 1.31396 3.41732 1.31309H7.65203C8.1283 1.31163 8.59107 1.47128 8.96512 1.76611L12.0082 4.16906C12.6117 4.64433 13.3574 4.90327 14.1256 4.90439H20.5892C21.1471 4.90526 21.6818 5.12723 22.0762 5.52166C22.4706 5.91609 22.6926 6.45081 22.6935 7.00862V7.61264C22.093 7.14258 21.3518 6.88821 20.5892 6.89044Z" fill="#E01A22"/>
</svg>
