<svg width="20" height="21" viewBox="0 0 20 21" fill="none" xmlns="http://www.w3.org/2000/svg">
<path d="M19.7603 18.2589L17.2289 15.7256C18.5774 14.0239 19.3182 11.9084 19.3182 9.73027C19.3182 4.40515 14.9862 0.071167 9.65911 0.071167C6.15276 0.071167 2.92095 1.97473 1.21521 5.039C1.21521 5.039 1.21521 5.039 1.21521 5.04101C1.21117 5.04909 1.20512 5.05716 1.20108 5.06524C0.415836 6.48231 0 8.09519 0 9.73027C0 11.3654 0.415836 12.9782 1.20108 14.3953C2.90278 17.4757 6.14469 19.3894 9.66112 19.3894C11.8392 19.3894 13.9547 18.6506 15.6564 17.3021L18.1858 19.8315C18.3392 19.9849 18.5431 20.0697 18.7611 20.0717C18.9791 20.0717 19.183 19.9869 19.3384 19.8335L19.7623 19.4096C20.0792 19.0926 20.0792 18.5759 19.7623 18.2589H19.7603ZM13.981 8.35559C13.8942 8.30916 13.8054 8.26677 13.7165 8.2264C13.6802 8.21025 13.6418 8.19612 13.6055 8.18199C13.5349 8.15373 13.4622 8.12547 13.3895 8.09923C13.3471 8.0851 13.3047 8.07097 13.2623 8.05885C13.1937 8.03665 13.1231 8.01646 13.0524 8.00031C13.008 7.9882 12.9636 7.97811 12.9192 7.96802C12.8485 7.95187 12.7779 7.93976 12.7072 7.92764C12.6628 7.91957 12.6204 7.91351 12.576 7.90746C12.4993 7.89736 12.4246 7.88929 12.3479 7.88323C12.3075 7.8792 12.2692 7.87516 12.2288 7.87314C12.1339 7.86708 12.0391 7.86708 11.9442 7.8691C11.924 7.8691 11.9018 7.8691 11.8816 7.8691C11.7645 7.87314 11.6495 7.88122 11.5324 7.89333C11.5021 7.89736 11.4738 7.9014 11.4436 7.90544C11.3588 7.91755 11.272 7.92966 11.1872 7.94581C11.1468 7.95389 11.1044 7.96398 11.0641 7.97407C10.9914 7.99022 10.9187 8.00839 10.8461 8.02857C10.8016 8.04069 10.7593 8.05482 10.7148 8.06895C10.6462 8.09115 10.5776 8.11538 10.5089 8.1396C10.4645 8.15575 10.4221 8.1719 10.3798 8.19006C10.3111 8.21832 10.2445 8.2486 10.1779 8.2809C10.1375 8.30109 10.0971 8.31926 10.0568 8.33944C10.0426 8.34752 10.0265 8.35357 10.0124 8.36165V5.59412H13.8175C14.0799 6.52672 14.2515 7.51786 14.3241 8.55543C14.2293 8.49286 14.1344 8.43634 14.0355 8.38385C14.0193 8.37376 14.0012 8.3677 13.983 8.35761L13.981 8.35559ZM10.0103 18.6566V15.8023C10.0467 15.8225 10.083 15.8386 10.1194 15.8568C10.1375 15.8649 10.1537 15.875 10.1718 15.8851C10.1799 15.8891 10.19 15.8931 10.2001 15.8972C10.2627 15.9274 10.3253 15.9557 10.3898 15.9819C10.404 15.988 10.4161 15.9941 10.4302 16.0001C10.4322 16.0001 10.4343 16.0001 10.4363 16.0021C10.515 16.0324 10.5917 16.0627 10.6725 16.0889C10.7027 16.099 10.733 16.1071 10.7633 16.1172C10.8138 16.1333 10.8642 16.1475 10.9147 16.1616C10.951 16.1717 10.9874 16.1798 11.0257 16.1899C11.0721 16.2 11.1166 16.21 11.163 16.2201C11.2013 16.2282 11.2417 16.2363 11.2801 16.2423C11.3245 16.2504 11.3709 16.2565 11.4153 16.2625C11.4557 16.2686 11.494 16.2746 11.5344 16.2787C11.6111 16.2868 11.6878 16.2928 11.7625 16.2989C11.8089 16.3009 11.8533 16.3029 11.8998 16.3029C11.9381 16.3029 11.9765 16.3049 12.0148 16.3049C12.0613 16.3049 12.1077 16.3049 12.1561 16.3009C12.1925 16.3009 12.2308 16.2969 12.2672 16.2948C12.3136 16.2928 12.36 16.2888 12.4085 16.2847C12.4468 16.2807 12.4852 16.2767 12.5235 16.2706C12.5679 16.2646 12.6144 16.2605 12.6588 16.2524C12.7274 16.2423 12.794 16.2282 12.8627 16.2141C12.8728 16.2141 12.8808 16.21 12.8909 16.208C12.1016 17.6352 11.0883 18.4992 10.0124 18.6546L10.0103 18.6566ZM9.30383 18.6566C7.85042 18.4447 6.51813 16.9327 5.71068 14.579H8.6074C8.73256 14.7486 8.86579 14.9121 9.01718 15.0655C9.10802 15.1563 9.2029 15.2411 9.30181 15.3219V18.6566H9.30383ZM5.49469 13.8725C5.16767 12.7037 4.98398 11.4077 4.95572 10.0856H8.2824C7.65058 11.2584 7.61424 12.6653 8.18349 13.8725H5.49469ZM1.72188 13.8725C1.11024 12.7057 0.765058 11.4077 0.714592 10.0815C0.730741 10.0835 0.744871 10.0856 0.763039 10.0856H4.25122C4.27746 11.3997 4.45106 12.6936 4.76193 13.8725H1.72188ZM1.72188 5.5921H4.76193C4.45106 6.77097 4.27746 8.06491 4.2492 9.37903H0.761021C0.744872 9.37903 0.728722 9.38105 0.712573 9.38307C0.765058 8.05684 1.11024 6.75684 1.72188 5.59008V5.5921ZM9.0192 9.09643C8.92836 9.18726 8.84358 9.28214 8.76284 9.38105H4.95572C4.98398 8.05885 5.16767 6.7629 5.49469 5.59412H9.30383V8.84006C9.20492 8.92081 9.11004 9.00559 9.0192 9.09643ZM13.5995 4.88558H10.0103V0.807964C11.4617 1.01992 12.794 2.52985 13.5995 4.88558ZM9.30383 0.807964V4.88558H5.7127C6.51813 2.53187 7.85244 1.01992 9.30383 0.807964ZM18.6016 9.41537C18.5552 9.39316 18.5047 9.38105 18.4502 9.38105H15.2446C15.1861 9.3104 15.1235 9.23975 15.0569 9.17111C15.0185 7.91553 14.849 6.71445 14.5522 5.5921H17.5903C18.1938 6.74271 18.5532 8.04069 18.6016 9.41537ZM18.4502 10.0876C18.5047 10.0876 18.5572 10.0734 18.6036 10.0512C18.5552 11.3916 18.2059 12.6976 17.5923 13.8745H15.83C16.3145 12.843 16.3569 11.6661 15.9633 10.6124C15.8966 10.4328 15.8159 10.2571 15.723 10.0876H18.4502ZM16.0803 14.581H17.1825C17.0392 14.8031 16.8878 15.0191 16.7263 15.227L16.0803 14.581ZM17.1785 4.8876H14.3423C13.8175 3.25655 13.0464 1.96463 12.1319 1.13296C14.2313 1.73855 16.0157 3.09304 17.1765 4.8876H17.1785ZM7.17822 1.13296C6.2658 1.96463 5.49469 3.25453 4.96985 4.88558H2.12965C3.31458 3.04863 5.11923 1.72846 7.17822 1.13296ZM2.12965 14.579H4.97187C5.49671 16.21 6.26782 17.4999 7.18024 18.3316C5.12124 17.7361 3.3166 16.4159 2.13166 14.579H2.12965ZM12.142 18.3316C12.792 17.7402 13.3714 16.9125 13.8437 15.881C13.9285 15.8406 14.0133 15.7982 14.0981 15.7498L15.1518 16.8035C14.2515 17.504 13.228 18.0187 12.142 18.3336V18.3316ZM19.2617 18.911L18.8378 19.3349C18.8115 19.3611 18.7813 19.3672 18.7611 19.3672C18.7449 19.3672 18.7106 19.3631 18.6844 19.3349L15.9289 16.5795L14.4008 15.0514C14.3746 15.0231 14.3423 15.0029 14.31 14.9868C14.304 14.9847 14.2999 14.9807 14.2959 14.9787C14.2636 14.9646 14.2313 14.9565 14.197 14.9524C14.1909 14.9524 14.1828 14.9524 14.1768 14.9524C14.1687 14.9524 14.1606 14.9504 14.1526 14.9504C14.1344 14.9504 14.1162 14.9565 14.0981 14.9585C14.0859 14.9585 14.0738 14.9605 14.0617 14.9646C14.0254 14.9747 13.989 14.9888 13.9568 15.011C13.7892 15.124 13.6156 15.2189 13.438 15.2956C12.2631 15.8205 10.8985 15.661 9.8751 14.8778C9.75196 14.7849 9.63286 14.6799 9.52386 14.5689C9.35833 14.4034 9.21097 14.2237 9.08582 14.032C8.25011 12.7824 8.30259 11.1413 9.21703 9.94828C9.30988 9.82515 9.41485 9.70807 9.52588 9.59704C9.6369 9.48602 9.75398 9.38307 9.87914 9.28819C11.2579 8.23246 13.23 8.35559 14.4695 9.57282C14.4776 9.58089 14.4856 9.58897 14.4957 9.59704C14.6067 9.70807 14.7117 9.82717 14.8046 9.9503C15.719 11.1433 15.7735 12.7844 14.9398 14.032C14.9398 14.032 14.9398 14.032 14.9398 14.034C14.9196 14.0643 14.9055 14.0986 14.8954 14.1349C14.8954 14.1389 14.8934 14.143 14.8914 14.147C14.8853 14.1733 14.8813 14.1995 14.8813 14.2257C14.8813 14.2338 14.8813 14.2419 14.8833 14.25C14.8833 14.256 14.8833 14.2641 14.8853 14.2702C14.8894 14.3065 14.8994 14.3388 14.9136 14.3711C14.9136 14.3751 14.9176 14.3771 14.9196 14.3812C14.9378 14.4155 14.958 14.4478 14.9862 14.4761L16.5123 16.0021L19.2698 18.7596C19.3101 18.802 19.3101 18.8706 19.2698 18.911H19.2617Z" fill="#E01A22"/>
<path d="M14.9234 11.9326C14.885 11.2059 14.5822 10.5256 14.0695 10.0169C13.8151 9.76254 13.5184 9.55866 13.1873 9.4113C12.4364 9.07823 11.5724 9.07823 10.8215 9.4113C10.4925 9.55866 10.1957 9.76254 9.94139 10.0169C9.68301 10.2733 9.47711 10.572 9.33379 10.901C9.00072 11.652 9.00072 12.5119 9.33379 13.2608C9.47711 13.5919 9.68301 13.8906 9.94139 14.147C10.0807 14.2863 10.2361 14.4134 10.4016 14.5225C10.8881 14.8434 11.4473 15.0029 12.0044 15.0029C12.5616 15.0029 13.1207 14.8414 13.6092 14.5204C13.7768 14.4114 13.9302 14.2843 14.0695 14.145C14.1401 14.0763 14.2047 14.0037 14.2673 13.929C14.453 13.7029 14.6024 13.4526 14.7134 13.1781C14.8729 12.7844 14.9435 12.3666 14.9254 11.9366V11.9326H14.9234ZM13.5689 13.6464C13.4619 13.7534 13.3468 13.8482 13.2196 13.933C12.4808 14.4195 11.528 14.4195 10.7912 13.933C10.662 13.8482 10.547 13.7554 10.44 13.6464C10.2442 13.4526 10.0908 13.2285 9.98177 12.9762C9.72944 12.409 9.72944 11.7569 9.98177 11.1857C10.0908 10.9374 10.2442 10.7113 10.44 10.5175C10.6338 10.3237 10.8578 10.1703 11.1082 10.0573C11.3928 9.93009 11.6996 9.86751 12.0044 9.86751C12.3092 9.86751 12.6161 9.93009 12.9007 10.0573C13.151 10.1683 13.3771 10.3237 13.5709 10.5175C13.6193 10.566 13.6658 10.6164 13.7081 10.6689C14.013 11.0343 14.1906 11.4885 14.2168 11.9709C14.2168 11.9992 14.2168 12.0254 14.2168 12.0517C14.2168 12.1062 14.2168 12.1607 14.2168 12.2132C14.2027 12.4554 14.1482 12.6895 14.0594 12.9136C13.9484 13.1902 13.7828 13.4364 13.5709 13.6464H13.5689Z" fill="#E01A22"/>
<path d="M12.7599 10.3782C12.2815 10.1662 11.7324 10.1662 11.252 10.3782C11.0421 10.4711 10.8543 10.6023 10.6908 10.7638C10.5536 10.901 10.5536 11.1251 10.6908 11.2624C10.8281 11.3996 11.0522 11.3996 11.1894 11.2624C11.2904 11.1614 11.4075 11.0807 11.5387 11.0221C11.8354 10.8909 12.1765 10.8909 12.4713 11.0221C12.6025 11.0807 12.7196 11.1614 12.8205 11.2624C12.8891 11.331 12.98 11.3653 13.0708 11.3653C13.1616 11.3653 13.2525 11.331 13.3211 11.2624C13.4584 11.1251 13.4584 10.901 13.3211 10.7638C13.1596 10.6023 12.9699 10.4711 12.7599 10.3782Z" fill="#E01A22"/>
</svg>
