<svg width="44" height="44" viewBox="0 0 44 44" fill="none" xmlns="http://www.w3.org/2000/svg">
<circle cx="22" cy="22" r="17" fill="#EFEFEF"/>
<path d="M22.0017 11C19.1567 11 16.8281 13.3276 16.8281 16.1736C16.8281 19.0197 19.1567 21.3472 22.0017 21.3472C24.8468 21.3472 27.1753 19.0197 27.1753 16.1736C27.1753 13.3276 24.8468 11 22.0017 11ZM22.0017 12.8819C23.8293 12.8819 25.2934 14.3436 25.2934 16.1736C25.2934 18.0035 23.8292 19.4653 22.0017 19.4653C20.1743 19.4653 18.7101 18.0035 18.7101 16.1736C18.7101 14.3436 20.1742 12.8819 22.0017 12.8819Z" fill="black"/>
<path d="M19.3125 22.2917C15.837 22.2917 13 25.1272 13 28.6042V29.5C13 30.9977 14.2384 32.2361 15.7361 32.2361H17.2986C17.4222 32.2357 17.5445 32.2109 17.6585 32.1632C17.7725 32.1155 17.876 32.0459 17.9631 31.9582C18.0501 31.8705 18.1191 31.7664 18.1659 31.6521C18.2128 31.5377 18.2366 31.4153 18.2361 31.2917C18.2353 31.0433 18.1362 30.8053 17.9606 30.6297C17.7849 30.4541 17.547 30.355 17.2986 30.3542H15.7361C15.256 30.3542 14.8819 29.9816 14.8819 29.5V28.6042C14.8819 26.1434 16.8546 24.1667 19.3125 24.1667H24.6875C27.1455 24.1667 29.1181 26.1434 29.1181 28.6042V29.5C29.1181 29.9816 28.744 30.3542 28.2639 30.3542H26.7014C26.453 30.355 26.2151 30.4541 26.0394 30.6297C25.8638 30.8053 25.7647 31.0433 25.7639 31.2917C25.7634 31.4153 25.7872 31.5377 25.8341 31.6521C25.8809 31.7664 25.9499 31.8705 26.0369 31.9582C26.124 32.0459 26.2275 32.1155 26.3415 32.1632C26.4555 32.2109 26.5778 32.2357 26.7014 32.2361H28.2639C29.7616 32.2361 31 30.9977 31 29.5V28.6042C31 25.1273 28.1631 22.2917 24.6875 22.2917H19.3125Z" fill="black"/>
<path d="M22 29.007C21.8764 29.0074 21.7541 29.0321 21.6401 29.0798C21.5261 29.1275 21.4227 29.1972 21.3356 29.2849C21.2486 29.3726 21.1796 29.4766 21.1328 29.591C21.0859 29.7053 21.062 29.8278 21.0625 29.9514V32.6389C21.0634 32.8873 21.1624 33.1252 21.3381 33.3008C21.5137 33.4765 21.7516 33.5755 22 33.5764C22.2484 33.5755 22.4863 33.4765 22.662 33.3008C22.8376 33.1252 22.9367 32.8873 22.9375 32.6389V29.9514C22.938 29.8278 22.9141 29.7053 22.8672 29.591C22.8204 29.4766 22.7515 29.3726 22.6644 29.2849C22.5773 29.1972 22.4739 29.1275 22.3599 29.0798C22.2459 29.0321 22.1236 29.0074 22 29.007Z" fill="black"/>
<path d="M20.6524 30.3542C20.404 30.355 20.166 30.4541 19.9904 30.6297C19.8147 30.8053 19.7157 31.0433 19.7149 31.2917C19.7144 31.4153 19.7382 31.5377 19.7851 31.6521C19.8319 31.7664 19.9008 31.8704 19.9879 31.9581C20.075 32.0458 20.1785 32.1155 20.2925 32.1632C20.4065 32.2109 20.5288 32.2357 20.6524 32.2361H23.3468C23.4704 32.2357 23.5927 32.2109 23.7067 32.1632C23.8207 32.1155 23.9242 32.0458 24.0112 31.9581C24.0983 31.8704 24.1672 31.7664 24.2141 31.6521C24.2609 31.5377 24.2848 31.4153 24.2843 31.2917C24.2834 31.0433 24.1844 30.8053 24.0087 30.6297C23.8331 30.4541 23.5952 30.355 23.3468 30.3542H20.6524Z" fill="black"/>
</svg>
